<svg version="1.2" xmlns="http://www.w3.org/2000/svg" viewBox="604 243 713 592" width="713" height="592">
	<title>logo-svg</title>
	<style>
		.s0 { opacity: .6;fill: #66af59 } 
		.s1 { opacity: .6;fill: #feffff } 
		.s2 { opacity: .6;fill: #b8dbb3 } 
		.s3 { fill: #000000 } 
	</style>
	<g id="Folder 1">
		<path id="Shape 1" fill-rule="evenodd" class="s0" d="m1041.9 828.6c-199.3 23.5-423.2-103-430.8-306.8-8.3-223.4 240.5-327.5 463.7-246.5 160.6 58.3 248.9 197.9 234.9 319.7-13.3 115.6-119 216.1-267.8 233.6z"/>
		<path id="Shape 2" fill-rule="evenodd" class="s1" d="m1042.4 791.7c-172.6 14.9-357-97.4-360.7-266.5-4-182.3 199-273 388.9-210.8 142.7 46.8 224.6 167.7 212.8 275.5-11.2 102.9-107.5 190.3-241 201.8z"/>
		<path id="Shape 2 copy" fill-rule="evenodd" class="s2" d="m1041.4 775.1c-160.8 14.5-332.2-90.4-335.1-249.2-3.2-171.4 186.2-257.2 362.9-199.3 132.7 43.4 208.5 156.8 197.2 258.1-10.8 96.7-100.7 179.2-225 190.4z"/>
		<path id="Shape 1 copy" fill-rule="evenodd" class="s1" d="m1135.6 513c-64.8 3.9-139.9-35.9-145.3-94.9-5.9-64.7 74-91.2 148.2-64.6 53.3 19.1 84.2 60.8 81.4 95.8-2.7 33.2-35.8 60.7-84.3 63.7z"/>
		<path id="Jo Smith Photography " class="s3" d="m871.7 378.2q1.1 2.8 1.1 8.6 0 5.5-1 12.3-1 6.7-2.7 14.3-1.8 7.5-4.3 15.7-2.5 8.2-5.5 16.4 2.6 6.1 3.7 13.8 1.2 7.7 1.2 16.1 0 2-0.1 3.4 0 1.4 0 2.2-1.6 1.6-3.6 3.3-1.7 1.5-4.2 3.3-2.4 1.9-5.5 3.8 0.8-2.7 1.5-6.1 0.7-3.4 1.2-7.3 0.5-3.9 0.8-8.1 0.3-4.1 0.3-8.2 0-0.9-0.1-1.8 0-0.8 0-1.8-3.4 8.4-7.1 16.4-3.6 8-7.4 15.1-3.7 7-7.5 12.9-3.7 6-7.3 10.3-3.5 4.2-6.7 6.6-3.2 2.4-5.8 2.4-0.9 0-2-1.1-1-1.2-2.1-2.9-1.1-1.8-2.2-3.9-1-2.2-1.9-4.1-0.9-2.1-1.5-3.7-0.6-1.6-0.7-2.4-0.2-0.6-0.5-2.4-0.3-1.8-0.3-4 0-7.3 1.5-15.1 1.5-7.9 4.1-15.3 2.7-7.5 6.3-14.2 3.7-6.7 7.9-11.7 4.3-5.1 8.9-8 4.7-2.9 9.5-2.9 5.6 0 10 2.8 2.9-8 5.3-16 2.6-7.9 4.3-15.4 1.8-7.5 2.8-14.2 1.1-6.7 1.1-12.3 0-3.9-0.8-5.7-0.8-1.9-3.2-1.9-1.7 0-4.2 0.9-2.5 1-5.4 2.7-2.7 1.7-5.6 4.2-2.8 2.5-5.1 5.7-2.2 3.1-3.6 6.9-1.5 3.8-1.5 8.1 0 2.3 0.6 5.3 0.5 2.9 1.8 6.3 1.3 3.4 3.6 7.1 2.3 3.7 5.9 7.3-2.7 0.9-5.2 1.5-2.4 0.6-4.4 1-2 0.4-3.4 0.7-1.4 0.2-2.1 0.3-1-1-2.5-3.1-1.4-2.2-2.9-5.5-1.3-3.3-2.3-7.6-1-4.3-1-9.7 0-8.2 2.1-14.5 2.1-6.4 5.4-11.1 3.3-4.6 7.4-7.8 4.2-3.2 8.2-5.1 4.1-2 7.6-2.8 3.5-0.9 5.6-0.9 1.6 0 3.1 1.3 1.5 1.3 2.9 3.3 1.4 2 2.6 4.4 1.3 2.5 2.2 4.8 1 2.3 1.7 4.3 0.7 1.9 1 2.8zm-61.7 125.2q1.8 0 4.3-2.3 2.6-2.4 5.6-6.5 3-4.3 6.3-10 3.4-5.8 6.9-12.7 3.4-6.9 6.8-14.6 3.4-7.8 6.6-16-0.2 0-0.7 0-4.2 0-8.5 3-4.3 3-8.4 7.9-4 4.8-7.6 11.1-3.5 6.3-6.2 12.9-2.6 6.5-4.1 12.9-1.5 6.2-1.5 11.2 0 1.2 0.1 2.2 0.1 0.9 0.4 0.9zm68.9-22q0 2.5 1.1 2.5 1.2 0 3.2-3.1 2-3.1 4.2-7.8-0.1-1-0.2-1.7 0-0.7 0-1.3 0-1.7 0.2-4 0.3-2.4 1.2-5.3 0.7-2.3 1.5-4.5 0.8-2 1.8-4.2 1.1-2.3 2.3-4.2l0.4-0.5q0.5 1 1.3 2.8 0.9 1.7 1.8 3.5 0.8 1.8 1.5 3.3 0.7 1.6 0.8 2.2 0 3.6-0.8 7.2-0.8 3.7-2.2 7.3 3.2-0.4 5.8-2.6 2.8-2.3 5.7-7.4 0.5 0.8 1.2 2.2 0.8 1.2 1.3 2.2-2.2 3.7-4.4 6.1-2.1 2.5-4.2 3.9-2.1 1.5-4.3 2.2-2.2 0.6-4.5 0.6-1.8 3-3.9 5.6-2 2.5-4.2 4.4-2.1 1.8-4.2 2.8-2.1 1.1-4 1.1-1.5 0-3.2-1.6-1.7-1.5-3.1-3.7-1.3-2.3-2.2-4.8-0.9-2.6-0.9-4.5 0-6.5 1.1-12.8 1.1-6.4 3.3-11.9 2.3-5.6 5.8-9.8 3.6-4.3 8.5-6.5 0.1-0.1 0.5-0.2 0.4-0.1 0.7-0.1 0.7 0 1.5 0.9 0.8 0.9 1.5 2 0.8 1.1 1.2 2.2 0.5 1 0.5 1.3-0.1 0.5-0.8 1.1-0.7 0.6-1.8 2.2-1.2 1.5-2.7 4.4-1.6 2.8-3.5 7.4-2.8 6.9-3.8 12.5-1 5.5-1 8.6zm126.2-104.7q0 0.1 0.2 0.8 0.1 0.6 0.3 1.4 0.1 0.8 0.2 1.7 0.2 0.7 0.2 1.1 0 2.8-0.7 6.9-0.8 4-2.1 8.5-1.2 4.5-3 9.1-1.7 4.7-3.6 8.9-2 4.2-4.1 7.7-2 3.4-4 5.4-0.8-1.1-1.8-2.6-1-1.6-2.2-3.2-1.1-1.8-2.3-3.6-1.1-1.8-2.1-3.5 1.5-1.9 3.4-5.1 1.9-3.2 3.9-7.1 2-3.9 3.9-8 1.8-4.2 3.2-8 1.4-3.9 2.2-7.1 0.8-3.1 0.6-5-0.2-0.9-0.5-1.2-0.3-0.4-1.2-0.4-3.2 0-7.4 2-4.2 2-8.8 5.9-4.6 3.8-9.2 9.4-4.7 5.6-8.7 12.7-4.1 7-7.3 15.4-3.1 8.4-4.8 17.9 3.7-0.1 7-0.4 3.3-0.5 6.3-0.9 3-0.4 5.7-0.8 2.7-0.3 5.3-0.3 1.3 0 2.9 2.4 1.6 2.4 3 5.7 1.3 3.3 2.2 6.7 0.9 3.5 0.9 5.6 0 6.1-1.9 12.2-1.9 6-5.2 11.7-3.2 5.6-7.4 10.5-4.3 4.8-9 8.4-4.7 3.6-9.6 5.7-4.8 2.1-9.2 2.1-0.6-0.8-1.6-2.3-0.9-1.6-2-3.5-1.1-2-2.2-4.1-1.1-2.1-2.1-4-1-2-1.7-3.6-0.7-1.6-1-2.5 2.9 0.7 6.9 0.4 4.1-0.4 8.6-1.9 4.6-1.5 9.1-4.3 4.6-2.9 8.6-7.2 4-4.3 7.1-10.3 3-6 4.4-13.9-3.1 0.1-5.5 0.5-2.5 0.4-4.8 0.9-2.3 0.4-4.7 0.7-2.5 0.4-5.4 0.4-0.9 0-2 0-1.1-0.1-2.2-0.3-1.1-0.2-2.1-0.7-1-0.5-1.7-1.5-1.4-1.9-2.7-4-1.3-2.3-2.4-4.5-1-2.2-1.6-4.5-0.7-2.3-0.7-4.4 0-6.5 2-14.4 2-7.9 5.5-16 3.6-8 8.4-15.6 4.9-7.6 10.5-13.6 5.7-5.9 12-9.4 6.3-3.6 12.8-3.6 2.2 0 4.1 1.1 1.9 1.1 3.4 2.9 1.5 1.8 2.7 4 1.2 2.1 2.2 4.1 0.9 2 1.6 3.8 0.7 1.7 1.2 2.7zm1.5 72.4q-0.6 2.6-1.2 5.4-0.7 2.8-1.2 5.7 3.3-6.4 5.4-10.2 2.2-3.8 3.6-5.9 1.5-2.2 2.5-3 0.9-0.9 1.7-1.3 0.5 0 1.6 0.9 1.1 0.8 2.4 2.1 1.3 1.2 2.4 2.5 1.2 1.3 1.7 2.1 0.4 0.7 0.1 2-0.7 2.7-1.3 5.5-0.6 2.7-1.1 5.6 3.5-6.5 5.8-10.4 2.4-4 3.9-6.1 1.5-2.2 2.3-2.8 0.9-0.7 1.3-0.7 0.7 0 2.1 1.1 1.3 1.1 2.7 2.7 1.4 1.6 2.4 3.3 1.1 1.7 1.1 3 0 0.2-0.1 0.7 0 0.3-0.1 0.9-0.5 2.1-1.1 5-0.7 2.9-1.4 6-0.7 3.1-1.5 6.2-0.7 3.1-1.3 5.8-0.6 2.7-0.9 4.7-0.4 2-0.4 3 0 0.5 0.3 0.5 0.6 0 1.8-1.1 1.1-1.1 2.6-2.9 1.5-1.8 3.1-3.9 1.6-2.1 3.1-4.2 1.5-2.1 2.7-3.8 1.3-1.7 1.9-2.5 0.5 0.8 1.1 1.9 0.7 1.2 1.2 2.2-1.1 1.9-2.8 4.6-1.8 2.7-3.8 5.4-2 2.8-4.2 5.6-2.2 2.8-4.2 5-2.1 2.2-3.8 3.6-1.8 1.4-3.1 1.4-0.8 0-2-0.9-1.2-0.9-2.3-2.2-1.1-1.3-1.9-3-0.8-1.6-0.8-3.1 0.5-3.5 1.3-7.9 0.8-4.4 1.7-9 1-4.6 2-9.1 1-4.5 2-8.3-1.1 2-2.8 4.9-1.8 2.9-4 7.6-2.2 4.7-4.7 11.6-2.5 7-5 17-0.3 1.7-1.5 1.7-0.7 0-1.6-0.4-0.9-0.4-2-1.1-0.9-0.9-2.1-2.1-1-1.2-1.9-2.9 0-0.6 0.3-3.5 0.4-3.1 1.2-7.7 0.8-4.7 1.8-10.5 1.1-5.7 2.4-11.8-1.3 2.2-3.2 5.7-1.9 3.3-4 8.3-2.2 4.8-4.4 11.2-2.3 6.5-4.3 14.6-0.3 1.8-1.4 1.8-0.9 0-2.1-0.8-1.1-0.8-2.3-2.1-1.1-1.3-2.4-3-1.1-1.6-2.1-3.2 0-0.5 0.3-2.9 0.3-2.3 0.8-5.9 0.6-3.6 1.3-8.2 0.8-4.7 1.8-9.8 1-5.1 2.2-10.3 1.2-5.3 2.6-10.3 2.2 1.7 4.8 4.2 2.8 2.4 5 5.8zm50.2 45.6q-0.8 0-2-0.9-1.2-0.9-2.3-2.2-1.1-1.3-1.9-3-0.8-1.6-0.8-3.1 0.5-3.7 1.4-8.6 0.9-4.8 1.9-9.8 1.1-5 2.2-9.7 1.1-4.9 2-8.6 1-3.7 1.6-6 0.7-2.3 0.9-2.3 0.3 0 1.6 1.1 1.3 1.1 2.6 2.7 1.4 1.5 2.5 3.3 1.2 1.7 1.2 3 0 0.2-0.1 0.7-0.1 0.3-0.2 0.9-0.4 2.1-1.1 5-0.6 2.9-1.3 6-0.8 3.1-1.5 6.2-0.7 3.1-1.3 5.8-0.6 2.7-1 4.7-0.3 2-0.3 3 0 0.5 0.3 0.5 0.6 0 1.7-1.1 1.2-1.1 2.7-2.9 1.5-1.8 3.1-3.9 1.6-2.1 3.1-4.2 1.5-2.1 2.7-3.8 1.2-1.7 1.9-2.5 0.4 0.8 1.1 1.9 0.6 1.2 1.2 2.2-1.1 1.9-2.9 4.6-1.7 2.7-3.7 5.4-2 2.8-4.2 5.6-2.2 2.8-4.2 5-2.1 2.2-3.9 3.6-1.8 1.4-3 1.4zm20.8-80.1q-0.1 0.4-0.5 1.7-0.3 1.3-0.7 3.1-0.5 1.7-1.1 3.6-0.6 1.9-1.2 3.5-0.6 1.6-1.1 2.7-0.5 1-0.8 1-1-0.1-2.3-0.9-1.4-0.8-2.6-1.9-1.2-1.1-2.1-2.1-0.9-1-0.9-1.4 0-1.8 0.7-4.6 0.6-2.9 1.4-5.5 0.9-2.7 1.7-4.7 0.9-1.9 1.4-1.9 0.9 0 2.3 1 1.4 0.9 2.6 2.2 1.3 1.3 2.2 2.5 1 1.2 1 1.7zm3.4 80.1q-0.9 0-2.4-1.3-1.4-1.4-2.8-3.2-1.3-2-2.3-4-1-2-1-3.5 0-2.5 0.8-8 0.9-5.6 2.3-12.6 1.4-7.1 3.2-15.2 1.9-8 3.7-15.7h-7.4-0.1q0 0 0-0.2 0-0.5 0.2-1.4 0.3-1.1 0.6-2.1 0.4-1.1 0.8-1.9 0.4-1 0.9-1.2l6.8-0.5q1.5-5.8 2.8-10.6 1.3-4.9 2.4-8.4 0.2-0.9 0.5-2 0.3-1.1 0.8-2.1 0.6-1.1 1.5-2.2 1-1.2 2.5-2.4 1.2-0.9 2.8-2 1.7-1.1 3.3-2 1.6-1 2.9-1.6 1.3-0.6 1.9-0.6 0.5 0 0.5 0.3v0.2q0 0.1-0.1 0.4-0.3 0.8-1.1 3.7-0.9 2.8-2.1 7.2-1.3 4.2-2.8 9.7-1.4 5.4-3 11.5l12.6-0.7q0.5 0 0.3 1-0.2 1-0.8 2.4-0.6 1.3-1.4 2.8-0.7 1.4-1.2 2.2-0.1 0.1-0.4 0.3-0.4 0.2-0.8 0.2h-10.4q-1.9 7.3-3.6 14.9-1.8 7.5-3.1 14.3-1.4 6.8-2.2 12.5-0.8 5.7-0.8 9.3 0 0.5 0.3 0.5 0.6 0 1.7-1 1.2-1.1 2.6-2.8 1.5-1.7 3.1-3.7 1.6-2.1 3.1-4 1.5-2.1 2.6-3.7 1.2-1.7 1.8-2.5 0.5 0.8 1.1 1.9 0.7 1.2 1.3 2.2-1.1 1.9-2.9 4.6-1.7 2.7-3.8 5.4-1.9 2.8-4.2 5.6-2.1 2.8-4.2 5-2 2.2-3.8 3.6-1.8 1.4-3 1.4zm48.8-11.8q0.8 0 2.1-1.1 1.3-1.1 2.9-2.8 1.6-1.7 3.3-3.8 1.6-2.1 3.2-4 1.5-2.1 2.7-3.7 1.3-1.7 1.9-2.5 0.5 0.8 1.1 1.9 0.7 1.2 1.2 2.2-1.1 1.9-2.8 4.5-1.8 2.6-3.8 5.3-2 2.7-4.1 5.3-2.2 2.7-4.2 4.8-2.1 2.1-3.8 3.4-1.8 1.2-3 1.2-1 0-2.4-0.7-1.3-0.9-2.6-2.1-1.2-1.2-2.1-2.7-0.8-1.5-0.8-2.9 0-3.7 0.8-8.5 0.8-4.8 1.9-9.9 1.1-5.1 2.3-10 1.2-5 2.3-8.9-0.4 0.1-1.6 1.8-1.2 1.7-3 4.7-1.7 2.9-3.7 7-2 4.1-4 9.2-1.9 5.1-3.7 11-1.8 5.9-3 12.4-0.2 0.9-0.5 1.3-0.2 0.5-0.9 0.5-0.5 0-1.5-0.8-1-0.8-2.1-1.8-1.1-1.1-2.1-2.3-1.1-1.2-1.7-2.1-0.3-0.6-0.5-1.1-0.3-0.5-0.3-1.5 0-5.6 1.2-13.7 1.2-8.2 3.1-17.7 2.1-9.6 4.8-19.9 2.7-10.4 5.7-20.4 3.1-10 6.4-19 3.4-9.1 6.6-16 3.3-6.9 6.2-11.1 3-4.2 5.5-4.5 1.2 0.6 2.4 1.9 1.2 1.3 2.3 2.8 1.1 1.5 2 3 0.9 1.4 1.3 2.4 0.3 0.7 0.5 1.6 0.1 1 0.1 1.4 0 3-1.1 7.5-1 4.5-2.9 10.1-1.9 5.6-4.6 12.1-2.7 6.3-6 13.1-3.3 6.7-7.1 13.6-3.8 6.8-7.9 13.3-1.1 4.6-1.9 8.9 2.8-4.8 5.2-8 2.3-3.2 4.2-5.1 1.8-1.9 3.1-2.7 1.3-0.8 2-0.8 0.4 0 1.6 1 1.2 0.9 2.6 2.3 1.3 1.3 2.4 2.8 1.1 1.4 1.3 2.3 0.1 0.5 0 1.2-0.1 0.7-0.2 1.1-0.5 2.3-1.1 5.4-0.7 2.9-1.4 6.3-0.8 3.3-1.5 6.7-0.8 3.4-1.3 6.3-0.6 2.8-1 5-0.3 2.1-0.3 3 0 0.5 0.3 0.5zm-4.6-72.9q-1.3 4.3-2.5 8.6-1.2 4.3-2.3 8.6 3.5-7.3 6.9-14.8 3.3-7.5 5.8-14.4 2.7-6.9 4.2-12.8 1.6-5.8 1.6-9.8 0-1.9-0.4-1.9-0.6 0-2 2.8-1.2 2.7-3 7.6-1.8 4.8-3.9 11.5-2.1 6.7-4.4 14.6zm-329.1 130.4v1.5q0 7.4-1.6 15.1-1.6 7.6-4.4 15.1-2.8 7.3-6.5 14.2-3.8 6.9-8 12.7-4.1 5.9-8.7 10.5-4.5 4.5-8.7 7.2-0.7-1.7-1.8-3.9-1-2.4-2.2-4.8-1.2-2.6-2.5-5.1-1.2-2.5-2.3-4.7 9-5.7 16.2-13.6 7.3-7.9 12.3-16.5 5-8.8 7.7-17.6 2.7-8.9 2.7-16.6 0-1-0.2-2.1-0.1-1.2-0.6-2-0.4-0.8-1.2-1.1-0.7-0.4-1.7 0-3 1-6.6 3.8-3.6 2.8-7.6 7-3.9 4.1-8.2 9.5-4.3 5.4-8.6 11.7-2.4 11.9-5.4 25.2-3.1 13.2-6.6 26.5-3.6 13.1-7.5 25.5-3.9 12.4-8 22.8-4 10.2-8 17.8-4 7.5-7.8 10.8-0.9 0.8-2.3 1.5-1.3 0.7-3.4 1-0.7 0.1-1.8-1-1-1.1-2.1-2.9-1.1-1.7-2.2-3.9-1.1-2.1-2-4.1-0.9-1.9-1.5-3.4-0.6-1.6-0.8-2.1-0.5-1.5-0.6-3.6 0-2.1 0.4-4.2 1.2-6.9 3.5-15.1 2.3-8.2 5.3-17.1 3.2-9 6.9-18.4 3.8-9.6 8.1-18.9 4.4-9.4 9.2-18.6 4.8-9.1 9.9-17.4 3.2-16.3 5.3-30.9 2.1-14.5 2.5-25.3 2.5 1.6 4.8 4.2 2.3 2.6 4.1 5.3 1.9 2.8 3.3 5.6 1.4 2.7 2.2 4.9-0.1 1.7-0.3 3.6-0.2 1.7-0.5 3.8 6.4-6.7 12.5-10.4 6.2-3.8 12.1-3.8 1.2 0 2.6 1.3 1.4 1.2 2.9 3.2 1.5 2 2.8 4.4 1.4 2.5 2.5 5.1 1 2.4 1.7 4.7 0.7 2.1 0.7 3.6zm-91.9 130.4q1.5 0 4-5.2 2.5-5.2 5.5-14.3 3.1-9 6.5-21 3.5-12 6.8-25.4-5 9.6-9.3 19.1-4.3 9.4-7.4 17.9-3.1 8.4-4.9 15.6-1.8 7.1-1.8 12.1 0 1.2 0.6 1.2zm114-9.4q1 0 2.6-1.3 1.6-1.4 3.5-3.4 1.9-2.1 4-4.5 2-2.6 3.8-5 1.9-2.4 3.4-4.4 1.5-2 2.2-3.1 0.6 1 1.4 2.4 0.8 1.4 1.5 2.7-1.4 2.2-3.5 5.4-2.1 3.1-4.5 6.4-2.4 3.2-5 6.4-2.6 3.2-5.1 5.8-2.5 2.5-4.6 4.1-2.2 1.5-3.7 1.5-1.2 0-2.8-0.9-1.6-1-3.1-2.5-1.5-1.5-2.6-3.3-1-1.8-1-3.5 0.1-4.5 1-10.3 1-5.8 2.3-12 1.3-6.2 2.7-12.1 1.6-6 2.8-10.8-0.5 0.2-1.9 2.3-1.5 2-3.6 5.6-2 3.5-4.5 8.5-2.4 5-4.8 11.1-2.4 6.2-4.5 13.3-2.2 7.1-3.6 15-0.2 1.1-0.6 1.7-0.3 0.5-1.2 0.5-0.5 0-1.7-0.9-1.2-1-2.6-2.2-1.3-1.3-2.6-2.8-1.2-1.4-2-2.5-0.4-0.8-0.6-1.4-0.3-0.6-0.3-1.8 0-6.8 1.4-16.6 1.4-9.9 3.8-21.4 2.5-11.5 5.7-24.1 3.3-12.6 7-24.7 3.8-12.1 7.8-22.9 4-11 7.9-19.3 3.9-8.4 7.5-13.5 3.6-5.1 6.6-5.4 1.4 0.7 2.9 2.3 1.5 1.5 2.9 3.3 1.3 1.9 2.3 3.6 1.1 1.8 1.6 3 0.4 0.8 0.6 2 0.1 1.1 0.1 1.6 0 3.7-1.3 9.1-1.3 5.5-3.5 12.2-2.3 6.8-5.6 14.6-3.3 7.7-7.3 15.9-3.9 8.1-8.5 16.4-4.6 8.3-9.6 16.1-1.3 5.5-2.3 10.8 3.4-5.8 6.3-9.7 2.8-3.9 5.1-6.1 2.2-2.4 3.7-3.3 1.6-1 2.4-1 0.6 0 2.1 1.2 1.4 1.1 3 2.8 1.6 1.6 2.9 3.3 1.3 1.8 1.7 2.9 0.1 0.5 0 1.5-0.2 0.8-0.3 1.3-0.6 2.8-1.4 6.4-0.7 3.6-1.7 7.7-0.9 4-1.8 8.1-0.9 4.1-1.6 7.6-0.7 3.4-1.1 6.1-0.4 2.5-0.4 3.6 0 0.6 0.3 0.6zm-5.6-88.2q-1.5 5.2-2.9 10.5-1.4 5.1-2.8 10.3 4.3-8.8 8.3-17.8 4-9.2 7.1-17.5 3.2-8.4 5.1-15.5 1.9-7 1.9-11.8 0-2.3-0.5-2.3-0.8 0-2.4 3.4-1.5 3.3-3.7 9.1-2.1 5.9-4.7 14-2.6 8.1-5.4 17.6zm32.5 86.3q0 3.1 1.4 3.1 1.5 0 3.9-3.7 2.4-3.8 5-9.5-0.1-1.1-0.2-2 0-0.9 0-1.6 0-2.1 0.3-4.8 0.3-2.9 1.5-6.5 0.7-2.8 1.8-5.4 0.9-2.4 2.1-5 1.3-2.8 2.8-5.2l0.4-0.6q0.7 1.2 1.7 3.4 1.1 2.1 2.1 4.3 1 2.2 1.8 4 0.8 1.9 1 2.6 0 4.4-1 8.8-0.9 4.4-2.6 8.7 3.8-0.4 7.1-3.1 3.3-2.7 6.8-8.9 0.6 0.9 1.5 2.6 0.9 1.5 1.5 2.6-2.7 4.5-5.3 7.5-2.5 3-5.1 4.7-2.6 1.8-5.2 2.6-2.7 0.7-5.5 0.7-2.1 3.7-4.6 6.8-2.5 3.1-5.1 5.3-2.5 2.3-5.1 3.5-2.5 1.2-4.8 1.2-1.9 0-3.9-1.8-2.1-1.9-3.7-4.5-1.7-2.8-2.7-5.9-1.1-3-1.1-5.4 0-7.8 1.2-15.5 1.4-7.7 4.1-14.3 2.8-6.8 7.1-11.9 4.3-5.2 10.2-7.8 0.2-0.2 0.6-0.3 0.5-0.1 0.8-0.1 0.9 0 1.9 1.1 1 1 1.8 2.3 0.9 1.4 1.5 2.7 0.5 1.2 0.5 1.7-0.1 0.5-0.9 1.3-0.8 0.7-2.2 2.6-1.4 1.8-3.3 5.3-1.9 3.4-4.2 9-3.4 8.3-4.6 15.1-1.3 6.6-1.3 10.3zm41.2 16.1q-1 0-2.8-1.5-1.7-1.6-3.4-3.9-1.6-2.4-2.8-4.8-1.2-2.5-1.2-4.2 0-3.1 1-9.8 1-6.6 2.8-15.1 1.7-8.7 3.8-18.4 2.3-9.7 4.5-19.1h-9q-0.1 0-0.1-0.2 0-0.6 0.3-1.7 0.3-1.2 0.7-2.5 0.4-1.3 0.9-2.3 0.6-1.2 1.1-1.5l8.2-0.6q1.8-7 3.4-12.8 1.6-6 2.9-10.2 0.3-1.1 0.7-2.3 0.3-1.4 1-2.6 0.7-1.3 1.7-2.6 1.2-1.5 3.1-2.9 1.4-1.1 3.4-2.5 2-1.3 3.9-2.4 2-1.2 3.5-1.9 1.6-0.8 2.3-0.8 0.7 0 0.7 0.4v0.2q0 0.1-0.2 0.5-0.3 1-1.4 4.5-1 3.4-2.5 8.6-1.5 5.2-3.3 11.8-1.8 6.6-3.7 14l15.3-0.9q0.6 0 0.3 1.2-0.2 1.2-0.9 2.9-0.7 1.6-1.7 3.3-0.9 1.8-1.5 2.7-0.1 0.2-0.5 0.4-0.4 0.2-0.9 0.2h-12.6q-2.3 9-4.4 18.1-2.1 9.1-3.7 17.3-1.7 8.2-2.7 15.1-1 6.9-1 11.3 0 0.6 0.4 0.6 0.7 0 2.1-1.2 1.4-1.4 3.1-3.4 1.8-2.1 3.8-4.5 1.9-2.5 3.7-4.9 1.8-2.4 3.2-4.4 1.4-2 2.2-3.1 0.6 1 1.3 2.4 0.9 1.4 1.6 2.7-1.4 2.2-3.5 5.5-2.1 3.2-4.6 6.6-2.4 3.4-5.1 6.7-2.6 3.4-5.1 6.1-2.5 2.7-4.6 4.3-2.2 1.6-3.7 1.6zm31.3-16.1q0 3.1 1.4 3.1 1.4 0 3.8-3.7 2.4-3.8 5-9.5-0.1-1.1-0.1-2 0-0.9 0-1.6 0-2.1 0.2-4.8 0.3-2.9 1.5-6.5 0.7-2.8 1.8-5.4 0.9-2.4 2.2-5 1.2-2.8 2.8-5.2l0.3-0.6q0.7 1.2 1.7 3.4 1.1 2.1 2.1 4.3 1.1 2.2 1.8 4 0.9 1.9 1 2.6 0 4.4-1 8.8-0.9 4.4-2.6 8.7 3.8-0.4 7.1-3.1 3.3-2.7 6.8-8.9 0.6 0.9 1.5 2.6 0.9 1.5 1.5 2.6-2.7 4.5-5.3 7.5-2.5 3-5.1 4.7-2.5 1.8-5.2 2.6-2.7 0.7-5.5 0.7-2.1 3.7-4.6 6.8-2.5 3.1-5.1 5.3-2.5 2.3-5.1 3.5-2.5 1.2-4.8 1.2-1.9 0-3.9-1.8-2-1.9-3.7-4.5-1.6-2.8-2.7-5.9-1.1-3-1.1-5.4 0-7.8 1.3-15.5 1.3-7.7 4-14.3 2.8-6.8 7.1-11.9 4.3-5.2 10.2-7.8 0.2-0.2 0.6-0.3 0.5-0.1 0.9-0.1 0.8 0 1.8 1.1 1 1 1.8 2.3 0.9 1.4 1.5 2.7 0.6 1.2 0.6 1.7-0.2 0.5-1 1.3-0.8 0.7-2.2 2.6-1.4 1.8-3.3 5.3-1.9 3.4-4.2 9-3.4 8.3-4.6 15.1-1.2 6.6-1.2 10.3zm84.7-20.2l2.9 5.5q-5.5 9-11 16.6-5.5 7.5-10.9 14-1 4.8-2.2 9.7-1.1 4.8-2.4 9.7-1.9 6.8-4.3 13-2.4 6.2-5.2 11.5-2.7 5.3-5.6 9.6-2.8 4.2-5.5 7.1-2.6 3-4.9 4.7-2.2 1.6-3.8 1.6-1.1 0-2.5-1.5-1.5-1.6-2.8-3.8-1.3-2.4-2.2-5.1-0.9-2.7-0.9-5.2 0-5.3 2.2-10.5 2.3-5.1 6.2-10.5 4-5.4 9.4-11.4 5.3-6 11.5-13 1.4-5.9 3.1-13.9 1.8-8.1 4.2-19.9-2.3 5.2-5.3 10.2-3.1 4.9-6.3 8.8-3.2 3.9-6.5 6.4-3.2 2.3-5.8 2.3-0.7 0-1.9-1-1-1.1-2.2-2.9-1.1-1.7-1.9-4.1-0.7-2.3-0.7-5 0-3.4 1-8.1 1-4.8 2.9-10.1 2-5.4 4.7-10.9 2.8-5.6 6.2-10.4 3.5-4.9 7.6-8.7 4.1-3.9 8.7-5.9 0.7 0 2 0.9 1.3 0.8 2.5 1.9 1.2 1.1 2.1 2.1 1 1 1 1.3 0 0.2-0.2 0.5-0.1 0.1-0.2 0.1-1.5 1.5-3.8 4-2.2 2.6-4.8 5.9-2.5 3.2-5.1 6.8-2.5 3.7-4.6 7.4-2 3.6-3.3 7-1.3 3.3-1.3 6 0 0.9 0.3 1.6 0.3 0.6 0.9 0.6 1.6 0 3.5-1.7 2.1-1.9 4.2-4.8 2.1-2.8 4.1-6.3 2.1-3.6 4-7 1.9-3.5 3.3-6.4 1.5-3 2.3-4.9 0.2-0.2 0.2-0.4 0.2-0.2 0.3-0.4 0.5 0.2 1.4 2.1 0.9 1.8 1.7 4.3 0.8 2.3 1.4 4.7 0.6 2.3 0.6 3.4v0.2q0 0.1-0.1 0.7-0.7 3.6-1.8 10-1.1 6.5-2.7 14.9 4-5.2 8.1-11 4.1-5.7 8.2-12.3zm-53.8 89.3q1.2 0 3.6-3.1 2.4-3.2 5.1-8 2.6-4.9 5.2-10.8 2.6-5.9 4.3-11.5-4.1 4.8-7.6 9.2-3.4 4.2-5.9 8.2-2.4 4-3.8 7.8-1.3 3.6-1.3 7.3 0 0.9 0.4 0.9zm82.2-101.1q-0.9 4-2.1 9.2-1.2 5.1-2.4 10-1.1 4.9-1.9 8.9-0.8 4-0.8 5.8 0 0.6 0.4 0.6 0.7 0 2.1-1.3 1.4-1.4 3.1-3.5 1.9-2.2 3.9-4.7 1.9-2.6 3.7-5.1 1.8-2.5 3.3-4.6 1.5-2 2.2-3.1 0.6 1 1.4 2.4 0.8 1.4 1.5 2.7-1.4 2.2-3.5 5.5-2.1 3.2-4.6 6.6-2.4 3.4-5.1 6.7-2.6 3.4-5.1 6.1-2.5 2.7-4.6 4.3-2.2 1.6-3.7 1.6-0.9 0-2.4-1-1.4-1.1-2.8-2.7-1.3-1.6-2.2-3.5-1-2-1-3.8 1-6.9 1.9-12 1-5.2 1.8-8.8 0.8-3.6 1.4-5.9 0.7-2.3 1-3.4-0.8-0.5-1.5-1.1-0.7-0.6-1.4-1.2-1 1.7-2.2 3.7-1.3 1.9-2.5 3.8-1.3 2-2.6 3.8-1.2 1.9-2.2 3.4l-3.1-5q1.7-2.6 3.9-6.2 2.4-3.6 4.6-7.3-1.6-1.6-2.8-2.9-1.3-1.4-2.2-2.6-1.1-1.2-1.9-2.2-0.4-0.3-0.4-1.4 0-1.1 0.5-3.1 0.6-2.2 1.4-4.6 0.8-2.4 1.8-4.9 0.9-2.5 1.8-4.6 0.9-2 1.6-3.3 0.7-1.3 0.8-1.3 0.2 0 0.9 0.5 0.7 0.5 1.6 1.2 0.8 0.7 1.5 1.5 0.7 0.8 0.9 1.4 0 0.5 0.1 2.2 0.1 1.6 0.1 4 2.5 2 5.1 4.7 2.6 2.5 4.8 4.9 2.5 2.7 4.8 5.4 0.8 0.9 1 2.1 0.3 1.2 0.1 2.1zm47.1 33.5q0 0.6 0.4 0.6 0.6 0 1.9-1.3 1.3-1.4 3.1-3.4 1.7-2.1 3.6-4.6 1.9-2.6 3.7-5.1 1.8-2.4 3.2-4.5 1.5-2 2.2-3.2 0.6 1 1.4 2.5 0.9 1.5 1.6 2.8-1.5 2.2-3.7 5.5-2.1 3.2-4.6 6.7-2.4 3.5-5 6.9-2.6 3.4-5 6.1-2.5 2.7-4.7 4.4-2.3 1.7-3.9 1.7-1.2 0-2.6-0.8-1.3-0.7-2.4-1.9-1.2-1.3-1.9-3.1-0.8-1.7-0.8-3.9 0-0.8-0.1-1.9 0-1.3 0.2-3.1 0.1-2 0.5-4.6 0.4-2.8 1.1-6.8-2.1 3.6-4.9 7.5-2.8 3.9-5.9 7.4-3.1 3.5-6.3 6.3-3.1 2.8-5.8 4.2-0.3 0.2-0.5 0.2-0.2 0-0.4 0-0.6 0-1.7-1-1-1-2-2.7-1-1.7-1.8-3.8-0.7-2.2-0.7-4.4 0-0.6 0.4-4.1 0.4-3.4 1.8-8.8 1.4-5.4 4.2-12.1 2.8-6.7 7.6-13.8 2.5-3.6 5.4-6.8 2.4-2.7 5.5-5.4 3.1-2.8 6.5-4.4 0.1 0 0.2-0.1 0.1-0.1 0.3 0.1 0.8 0.4 1.8 1.3 1.1 0.8 2.1 1.8 1.1 1 1.8 2 0.9 0.9 1.1 1.5 0.1 0.2 0 0.3l-0.1 0.2q-2.9 2.5-5.4 5.6-2.5 3-4.5 5.6-2.3 3.2-4.3 6.3-4.6 7.4-6.4 12.8-1.8 5.3-1.8 7.7 0 1.7 0.9 1.7 0.9 0 2.3-1.1 1.4-1.2 3.1-3.2 1.7-2 3.7-4.7 2.1-2.8 4.3-5.7 2-2.6 3.8-5.6 1.6-2.4 3.3-5.6 1.8-3.2 3-6.5 0-0.1 0-0.2 0.1-0.1 0.2 0 0.7 0.8 1.6 2.8 0.9 1.8 1.6 4.1 0.8 2.2 1.3 4.4 0.6 2.1 0.6 3.2-1.5 4.8-2.3 8.8-0.8 3.9-1.2 6.9-0.4 2.9-0.5 5.1-0.1 2-0.1 3.2zm34.1-39.1l-2.1 10.3q3.4-6.9 6.2-11.3 2.9-4.5 5-7.1 2.3-2.7 3.8-3.7 1.5-1 2.3-1 1 0 2.2 1.2 1.2 1.2 2.3 3 1.3 1.7 2.3 3.6 1 1.8 1.7 3 0.7 1.1 0.8 2.4 0.2 1.2 0.2 2.6 0 4.8-1 10.5-1 5.7-2.7 11.3-1.6 5.6-3.7 10.6-2.1 5-4.3 8.5 1.9-1.2 3.8-3 1.9-1.8 3.8-3.9 1.9-2 3.8-4.2 1.8-2.2 3.5-4.4 3.8-4.9 7.5-10.6l2.8 5.1q-2.1 3.2-4.7 6.7-2.5 3.6-5.3 7.1-2.8 3.5-5.7 6.7-2.9 3.2-5.5 5.6-2.7 2.5-5 3.9-2.3 1.5-3.9 1.5-1.2 0-2.9-1.1-1.7-1.1-3.3-2.6-1.6-1.6-2.8-3.3-1.2-1.9-1.2-3.3 0-0.8 0.7-1.4 0.6-0.8 1.9-2.5 1.3-1.7 3.1-5.2 1.7-3.5 4-10.2 1.2-3.7 2.2-7.6 1.1-4 2-7.4 0.8-3.4 1.2-5.9 0.5-2.6 0.5-3.5 0-0.9-0.2-1.2-0.1-0.4-0.2-0.6-0.3-0.1-0.5 0-0.8 0.4-3.6 4.6-2.6 4.1-6.3 11.9-3.6 7.7-7.6 18.8-4.1 11.1-7.7 25.4-3 13.7-6 27.8-3 14-5.8 28l-16.1 6.1q3.6-16.9 7.6-33.5 4-16.7 7.8-33.3 4-16.8 7.7-33.5 3.8-16.7 7.3-33.5 0.1-1.1 0.3-1.5 0.2-0.6 0.7-0.6 1 0.6 2.4 2 1.5 1.3 2.9 3.2 1.5 1.7 2.6 3.6 1.1 1.8 1.6 3.1 0.1 0.3-0.1 1.2-0.1 0.7-0.3 1.6zm70.7 39.5q1 0 2.6-1.3 1.5-1.4 3.4-3.4 2-2.1 4-4.5 2.1-2.6 3.9-5 1.9-2.4 3.4-4.4 1.4-2 2.2-3.1 0.6 1 1.3 2.4 0.9 1.4 1.6 2.7-1.4 2.2-3.5 5.4-2.1 3.1-4.5 6.4-2.5 3.2-5.1 6.4-2.6 3.2-5 5.8-2.5 2.5-4.7 4.1-2.1 1.5-3.6 1.5-1.2 0-2.8-0.9-1.6-1-3.1-2.5-1.5-1.5-2.6-3.3-1-1.8-1-3.5 0.1-4.5 1-10.3 1-5.8 2.2-12 1.4-6.2 2.8-12.1 1.5-6 2.8-10.8-0.5 0.2-1.9 2.3-1.5 2-3.6 5.6-2 3.5-4.5 8.5-2.4 5-4.8 11.1-2.4 6.2-4.5 13.3-2.2 7.1-3.7 15-0.1 1.1-0.5 1.7-0.3 0.5-1.2 0.5-0.5 0-1.7-0.9-1.3-1-2.6-2.2-1.3-1.3-2.6-2.8-1.3-1.4-2-2.5-0.4-0.8-0.7-1.4-0.2-0.6-0.2-1.8 0-6.8 1.4-16.6 1.4-9.9 3.8-21.4 2.5-11.5 5.7-24.1 3.3-12.6 7-24.7 3.7-12.1 7.7-22.9 4.1-11 8-19.3 3.9-8.4 7.5-13.5 3.6-5.1 6.6-5.4 1.4 0.7 2.9 2.3 1.5 1.5 2.8 3.3 1.4 1.9 2.4 3.6 1.1 1.8 1.6 3 0.4 0.8 0.5 2 0.2 1.1 0.2 1.6 0 3.7-1.3 9.1-1.3 5.5-3.6 12.2-2.2 6.8-5.5 14.6-3.3 7.7-7.3 15.9-3.9 8.1-8.5 16.4-4.6 8.3-9.6 16.1-1.3 5.5-2.3 10.8 3.4-5.8 6.3-9.7 2.8-3.9 5-6.1 2.3-2.4 3.8-3.3 1.6-1 2.4-1 0.6 0 2 1.2 1.5 1.1 3.1 2.8 1.6 1.6 2.9 3.3 1.3 1.8 1.6 2.9 0.2 0.5 0 1.5-0.1 0.8-0.2 1.3-0.6 2.8-1.4 6.4-0.8 3.6-1.7 7.7-0.9 4-1.8 8.1-0.9 4.1-1.6 7.6-0.7 3.4-1.1 6.1-0.5 2.5-0.5 3.6 0 0.6 0.4 0.6zm-5.6-88.2q-1.5 5.2-3 10.5-1.3 5.1-2.7 10.3 4.3-8.8 8.3-17.8 4-9.2 7.1-17.5 3.2-8.4 5.1-15.5 1.9-7 1.9-11.8 0-2.3-0.5-2.3-0.8 0-2.4 3.4-1.5 3.3-3.7 9.1-2.1 5.9-4.7 14-2.6 8.1-5.4 17.6zm76.1 66.1l2.8 5.3q-5.7 8.3-11.7 15.7-6 7.3-12.1 14.2-0.9 4.3-2 9.1-1.2 4.9-2.8 11-1.8 6.8-4.2 13.2-2.3 6.5-5 12.2-2.6 5.7-5.4 10.4-2.8 4.7-5.5 8.2-2.7 3.4-5.2 5.3-2.5 1.9-4.6 1.9-1 0-2.5-1.2-1.4-1.3-2.8-3.1-1.3-2-2.2-4.1-0.9-2.2-0.9-4 0-6.5 2.1-12.6 2.2-6.3 5.9-12.5 3.8-6.3 8.9-12.7 5.2-6.4 11.1-13.2 1.8-7.9 3.5-16.4 1.8-8.6 3.4-17-2.7 5.6-5.2 9.8-2.6 4.2-4.7 7.2-2.2 2.9-3.8 4.7-1.6 1.8-2.4 2.7-0.5 0.5-1.2 0.8-0.7 0.2-1.3 0.2-1.2 0-2.6-1.1-1.5-1.2-2.8-3-1.2-1.8-2.1-4-0.8-2.1-0.8-4.1 0-2.2 0.9-7.2 1-5 2.5-12.1 1.6-7 3.7-15.9 2.1-8.8 4.5-18.7 0.1-0.5 0.2-0.4 0.1 0 0.3 0 1.3 0.3 3.3 1.6 2.1 1.2 4.1 2.8 2 1.5 3.5 2.9 1.5 1.4 1.5 1.9-0.2 0.7-1.1 3.4-0.7 2.6-1.8 6.4-1 3.7-2.2 8.1-1.2 4.3-2.2 8.3-0.9 4-1.6 7.3-0.6 3.2-0.6 4.7 0 0.4 0.3 0.4 0.4 0 1.9-1.8 1.5-1.8 3.7-5.8 2.2-4 5-10.2 2.8-6.3 5.9-15 1.3-6.7 2.1-10.7 0.8-4.1 1.1-4.1 0.4 0 2 1.5 1.6 1.5 3.3 3.7 1.8 2 3.2 4.2 1.4 2 1.4 3.2 0 0.5-0.1 0.9 0 0.4-0.2 0.9-1.4 7.2-2.5 13-1.1 5.8-2 10.6-0.8 4.8-1.5 8.9-0.6 4-1.3 7.8 4.8-5.5 9.5-11.3 4.7-5.8 9.3-12.2zm-56.1 95.2q1.2 0 3.2-3.5 2-3.6 4.4-9.1 2.3-5.5 4.7-12.3 2.4-6.9 4.2-13.4-2.4 3.2-5.4 7.1-3 3.9-5.6 8.5-2.6 4.7-4.3 10-1.8 5.2-1.8 11.2 0 1.5 0.6 1.5z"/>
	</g>
	<g id="Layer 1">
	</g>
</svg>